<svg xmlns="http://www.w3.org/2000/svg" viewBox="0 0 800 600" fill="none">
  <!-- Background -->
  <rect width="800" height="600" fill="#f8fafc"/>
  
  <!-- Sidebar -->
  <rect width="200" height="600" fill="white"/>
  <rect x="200" width="1" height="600" fill="#e2e8f0"/>
  
  <!-- Logo Area -->
  <rect x="20" y="20" width="32" height="32" rx="8" fill="#0d9488"/>
  <rect x="64" y="28" width="100" height="16" rx="4" fill="#1e293b"/>
  
  <!-- Nav Items -->
  <rect x="16" y="80" width="168" height="40" rx="8" fill="#f0f9fa"/>
  <rect x="16" y="130" width="168" height="40" rx="8" fill="white"/>
  <rect x="16" y="180" width="168" height="40" rx="8" fill="white"/>
  
  <!-- Header -->
  <rect x="240" y="30" width="200" height="24" rx="4" fill="#0f172a"/>
  
  <!-- Stats Cards -->
  <rect x="240" y="80" width="120" height="80" rx="8" fill="white" stroke="#e2e8f0"/>
  <rect x="380" y="80" width="120" height="80" rx="8" fill="#fef2f2" stroke="#fee2e2"/>
  <rect x="520" y="80" width="120" height="80" rx="8" fill="white" stroke="#e2e8f0"/>
  <rect x="660" y="80" width="100" height="80" rx="8" fill="white" stroke="#e2e8f0"/>
  
  <!-- Main Table/Content -->
  <rect x="240" y="190" width="520" height="380" rx="8" fill="white" stroke="#e2e8f0"/>
  <rect x="240" y="240" width="520" height="1" fill="#e2e8f0"/>
  <rect x="240" y="290" width="520" height="1" fill="#e2e8f0"/>
  <rect x="240" y="340" width="520" height="1" fill="#e2e8f0"/>
  
  <!-- Fake Data Lines -->
  <rect x="260" y="210" width="100" height="10" rx="2" fill="#cbd5e1"/>
  <rect x="260" y="260" width="120" height="10" rx="2" fill="#cbd5e1"/>
  <rect x="260" y="310" width="110" height="10" rx="2" fill="#cbd5e1"/>
  
  <rect x="680" y="210" width="60" height="20" rx="10" fill="#dcfce7"/>
  <rect x="680" y="260" width="60" height="20" rx="10" fill="#fee2e2"/>
</svg>